<?xml version="1.0" standalone="no"?>
<!DOCTYPE svg PUBLIC "-//W3C//DTD SVG 20010904//EN"
 "http://www.w3.org/TR/2001/REC-SVG-20010904/DTD/svg10.dtd">
<svg version="1.0" xmlns="http://www.w3.org/2000/svg"
 width="1280.000000pt" height="450.000000pt" viewBox="0 0 1280.000000 450.000000"
 preserveAspectRatio="xMidYMid meet">

<g transform="translate(0.000000,450.000000) scale(0.100000,-0.100000)"
fill="#000000" stroke="none">
<path d="M1913 4479 c-78 -38 -123 -111 -123 -199 0 -201 243 -305 384 -164
15 16 35 42 43 57 21 42 28 127 13 172 -16 50 -75 114 -125 136 -55 26 -139
24 -192 -2z"/>
<path d="M2838 4060 c-114 -35 -154 -167 -79 -260 39 -49 67 -126 80 -226 31
-216 -9 -418 -103 -521 -93 -104 -100 -224 -18 -315 94 -104 244 -104 333 1
83 96 77 201 -16 311 -86 102 -121 239 -112 440 6 132 29 238 63 286 55 77 55
78 52 135 -6 87 -54 140 -138 153 -19 3 -47 1 -62 -4z"/>
<path d="M1019 4037 c-21 -14 -46 -46 -66 -86 -17 -35 -46 -79 -65 -98 -86
-90 -261 -196 -383 -233 -61 -18 -92 -20 -217 -18 l-146 3 -43 -30 c-60 -42
-99 -119 -99 -194 0 -60 24 -111 95 -199 69 -85 105 -278 85 -457 -14 -132
-31 -190 -77 -257 -30 -44 -37 -62 -37 -104 -1 -43 5 -60 36 -105 44 -64 64
-131 78 -259 24 -208 -19 -388 -119 -504 -49 -57 -64 -102 -59 -176 8 -111 89
-191 202 -198 135 -9 238 85 238 218 0 64 -16 102 -72 170 -67 81 -96 163
-109 308 -14 161 20 386 65 423 8 7 25 31 36 53 28 54 20 114 -21 171 -59 83
-83 189 -82 370 0 184 34 296 120 400 22 27 48 70 56 95 56 167 254 325 504
400 57 18 86 21 133 16 116 -12 191 51 193 160 0 59 -20 94 -75 132 -46 31
-124 31 -171 -1z"/>
<path d="M5020 3415 l0 -446 245 3 245 3 32 33 33 32 3 371 c2 328 1 374 -13
396 -31 47 -65 53 -315 53 l-230 0 0 -445z m474 349 c14 -13 16 -60 16 -354 0
-294 -2 -341 -16 -354 -13 -13 -46 -16 -205 -16 l-189 0 0 370 0 370 189 0
c159 0 192 -3 205 -16z"/>
<path d="M6393 3840 c-17 -10 -37 -28 -42 -39 -15 -27 -15 -755 -1 -782 23
-42 58 -49 260 -49 263 0 290 13 290 142 l0 68 -30 0 c-30 0 -30 -1 -30 -53 0
-85 -4 -87 -212 -87 -97 0 -183 3 -192 6 -14 5 -16 47 -16 363 0 264 3 360 12
369 8 8 65 12 189 12 206 0 209 -1 209 -81 l0 -49 35 0 35 0 0 53 c0 61 -25
117 -60 134 -17 9 -84 13 -220 13 -176 0 -198 -2 -227 -20z"/>
<path d="M8980 3415 l0 -445 35 0 35 0 0 205 0 205 165 0 c246 0 245 1 245
-240 l0 -160 35 0 35 0 0 169 c0 160 -1 170 -25 215 -13 25 -20 46 -15 46 5 0
16 13 24 28 21 41 26 353 6 378 -33 39 -70 44 -310 44 l-230 0 0 -445z m475
349 c13 -13 15 -38 13 -152 -4 -172 11 -162 -230 -162 l-178 0 0 165 0 165
189 0 c160 0 192 -2 206 -16z"/>
<path d="M9700 3841 c-19 -10 -41 -29 -47 -42 -10 -18 -13 -127 -13 -426 l0
-403 35 0 35 0 0 205 0 205 205 0 205 0 0 -205 0 -205 35 0 35 0 0 411 c0 275
-4 417 -11 431 -21 40 -67 48 -261 48 -159 0 -188 -2 -218 -19z m414 -77 c13
-13 16 -42 16 -165 l0 -149 -205 0 -205 0 0 153 c0 106 4 157 12 165 8 8 65
12 189 12 148 0 180 -3 193 -16z"/>
<path d="M5680 3405 l0 -445 280 0 280 0 0 35 0 35 -245 0 -245 0 0 170 0 170
185 0 185 0 0 35 0 35 -185 0 -185 0 0 170 0 170 245 0 245 0 0 35 0 35 -280
0 -280 0 0 -445z"/>
<path d="M7000 3405 l0 -445 285 0 285 0 0 35 0 35 -245 0 -245 0 0 170 0 170
185 0 185 0 0 35 0 35 -185 0 -185 0 0 170 0 170 245 0 245 0 0 35 0 35 -285
0 -285 0 0 -445z"/>
<path d="M7660 3404 l0 -445 38 3 37 3 5 410 c4 340 7 406 18 385 7 -14 82
-198 166 -410 l154 -385 71 -3 71 -3 0 446 0 445 -35 0 -35 0 0 -410 c0 -225
-4 -410 -8 -410 -5 0 -82 185 -172 410 l-164 410 -73 0 -73 0 0 -446z"/>
<path d="M8320 3815 l0 -35 125 0 125 0 0 -410 0 -410 35 0 35 0 0 410 0 410
125 0 125 0 0 35 0 35 -285 0 -285 0 0 -35z"/>
<path d="M10302 3408 l3 -443 283 -3 282 -2 0 35 0 35 -245 0 -245 0 0 410 0
410 -40 0 -40 0 2 -442z"/>
<path d="M10960 3815 l0 -35 105 0 105 0 0 -375 0 -375 -105 0 -105 0 0 -35 0
-35 250 0 250 0 0 35 0 35 -110 0 -110 0 0 375 0 375 110 0 110 0 0 35 0 35
-250 0 -250 0 0 -35z"/>
<path d="M11550 3750 l0 -100 35 0 35 0 0 65 0 65 210 0 210 0 0 -57 1 -58
-251 -245 -251 -245 3 -105 3 -105 283 -3 282 -2 0 105 0 105 -30 0 -30 0 0
-65 0 -65 -210 0 -210 0 0 51 0 51 245 251 245 252 0 103 0 102 -285 0 -285 0
0 -100z"/>
<path d="M12210 3405 l0 -445 285 0 285 0 0 35 0 35 -250 0 -250 0 0 170 0
170 190 0 190 0 0 35 0 35 -190 0 -190 0 0 170 0 170 250 0 250 0 0 35 0 35
-285 0 -285 0 0 -445z"/>
<path d="M3707 3596 c-60 -22 -107 -65 -133 -120 -40 -86 -28 -162 38 -243 91
-109 122 -214 121 -413 -1 -168 -24 -265 -83 -354 -30 -44 -40 -69 -40 -98 0
-56 22 -101 66 -134 31 -24 47 -29 95 -29 65 0 98 18 137 76 36 51 28 127 -20
196 -55 80 -73 167 -72 353 0 141 3 162 27 235 15 44 43 100 62 125 75 97 86
117 92 172 6 60 -18 132 -60 176 -53 58 -159 84 -230 58z"/>
<path d="M1940 3539 c-116 -46 -136 -217 -34 -284 121 -79 278 25 250 166 -18
92 -129 153 -216 118z"/>
<path d="M1036 3086 c-82 -31 -145 -121 -146 -209 0 -60 19 -106 70 -167 81
-97 117 -226 107 -384 -7 -111 -36 -208 -82 -273 -19 -26 -46 -65 -62 -87 -33
-47 -44 -141 -21 -196 37 -87 118 -141 212 -141 121 0 219 98 219 221 0 62
-19 104 -83 185 -76 94 -116 292 -91 439 18 102 46 165 101 231 87 103 99 199
35 297 -51 77 -172 116 -259 84z"/>
<path d="M1899 2667 c-84 -32 -148 -88 -191 -170 -19 -35 -23 -58 -23 -137 0
-110 12 -139 94 -233 64 -73 94 -125 130 -224 40 -107 54 -216 40 -301 -10
-64 -28 -102 -84 -181 -19 -25 -25 -47 -25 -83 0 -54 10 -80 46 -118 12 -14
33 -47 45 -75 29 -62 30 -196 5 -295 -25 -93 -97 -236 -152 -300 -72 -83 -98
-149 -98 -240 1 -95 26 -154 94 -220 86 -83 219 -113 333 -74 106 36 195 156
204 277 9 102 -14 160 -95 250 -123 135 -188 309 -180 481 5 98 15 124 84 221
32 45 36 55 32 101 -4 42 -13 63 -51 113 -56 74 -72 140 -64 254 12 147 80
307 183 427 70 81 89 129 89 225 0 94 -24 154 -88 218 -79 79 -235 119 -328
84z"/>
<path d="M2837 2006 c-129 -46 -147 -206 -34 -290 21 -16 43 -21 86 -21 48 0
64 5 95 29 65 49 83 124 47 194 -23 46 -46 67 -94 87 -44 18 -51 18 -100 1z"/>
<path d="M7661 1856 c-19 -7 -44 -25 -55 -40 -20 -26 -21 -43 -24 -354 -4
-381 -1 -420 35 -456 l26 -26 209 0 c278 0 298 9 298 140 0 59 0 60 -29 60
-27 0 -29 -2 -33 -56 -3 -33 -11 -60 -19 -65 -8 -5 -98 -9 -201 -9 -175 0
-188 1 -198 19 -6 13 -10 142 -10 351 0 209 4 338 10 351 10 18 23 19 200 19
214 0 210 1 210 -79 0 -40 1 -41 36 -41 l36 0 -4 60 c-5 71 -29 109 -79 127
-47 16 -362 16 -408 -1z"/>
<path d="M5020 1825 l0 -35 105 0 105 0 0 -375 0 -375 -105 0 -105 0 0 -35 0
-35 250 0 250 0 0 35 0 35 -110 0 -110 0 0 375 0 375 110 0 110 0 0 35 0 35
-250 0 -250 0 0 -35z"/>
<path d="M5610 1415 l0 -445 35 0 35 0 0 410 c0 386 1 410 18 410 9 0 58 -41
107 -90 l90 -90 90 90 c50 49 96 90 103 90 9 0 12 -92 12 -410 l0 -410 35 0
35 0 0 445 0 445 -62 0 -63 0 -75 -75 -75 -75 -75 75 -74 75 -68 0 -68 0 0
-445z"/>
<path d="M6270 1415 l0 -445 35 0 35 0 0 205 0 205 203 0 c185 0 205 2 235 20
55 33 64 72 60 241 -5 220 -3 219 -338 219 l-230 0 0 -445z m476 361 c17 -13
19 -27 19 -154 0 -103 -4 -143 -14 -155 -12 -15 -39 -17 -207 -17 l-194 0 0
170 0 170 188 0 c147 0 192 -3 208 -14z"/>
<path d="M7000 1842 c-69 -37 -70 -40 -70 -479 l0 -393 35 0 35 0 0 205 0 205
210 0 210 0 0 -205 0 -205 35 0 35 0 0 408 c0 361 -2 410 -16 431 -31 43 -70
51 -261 51 -154 0 -183 -3 -213 -18z m406 -66 c17 -13 19 -30 22 -170 l3 -156
-210 0 -211 0 0 154 c0 198 -14 186 210 186 128 0 171 -3 186 -14z"/>
<path d="M8260 1825 l0 -35 125 0 125 0 0 -410 0 -410 35 0 35 0 0 410 0 410
126 0 125 0 -3 33 -3 32 -282 3 -283 2 0 -35z"/>
<path d="M3672 1539 c-50 -25 -97 -79 -113 -129 -22 -66 -51 -114 -107 -173
-148 -154 -351 -232 -521 -198 -77 15 -136 1 -191 -46 -56 -48 -83 -105 -83
-173 0 -144 132 -249 275 -219 72 16 146 90 171 171 42 136 184 260 368 322
82 28 165 34 274 22 65 -7 74 -6 125 21 133 68 167 233 72 344 -20 23 -54 50
-76 60 -56 26 -140 25 -194 -2z"/>
<path d="M1020 1037 c-88 -48 -128 -103 -137 -190 -6 -59 18 -131 60 -175 67
-72 193 -90 280 -39 26 15 60 47 75 69 24 37 27 51 27 123 0 72 -3 86 -28 123
-44 67 -97 96 -181 100 -46 2 -80 -2 -96 -11z"/>
</g>
</svg>
