<?xml version="1.0" standalone="no"?>
<!DOCTYPE svg PUBLIC "-//W3C//DTD SVG 20010904//EN"
 "http://www.w3.org/TR/2001/REC-SVG-20010904/DTD/svg10.dtd">
<svg version="1.0" xmlns="http://www.w3.org/2000/svg"
 width="1280.000000pt" height="256.000000pt" viewBox="0 0 1280.000000 256.000000"
 preserveAspectRatio="xMidYMid meet">

<g transform="translate(0.000000,256.000000) scale(0.100000,-0.100000)"
fill="#000000" stroke="none">
<path d="M0 1325 c0 -679 2 -1235 4 -1235 6 0 52 64 890 1215 356 490 665 907
686 928 l39 37 266 0 c146 0 265 -2 265 -5 0 -3 -515 -717 -651 -902 l-38 -51
343 -474 343 -473 -241 -6 c-133 -4 -257 -3 -278 2 -46 12 -57 24 -268 316
-96 134 -177 242 -180 242 -6 0 -140 -183 -157 -215 -10 -16 -10 -30 -3 -50
13 -34 344 -486 391 -534 23 -24 52 -41 82 -48 49 -13 1118 -17 1190 -6 l38 7
-17 26 c-19 29 -522 722 -725 999 -111 151 -129 180 -129 213 0 40 -1 38 231
354 129 175 587 805 628 862 l22 33 -635 0 -635 0 -33 -33 c-18 -18 -278 -370
-577 -783 -299 -412 -548 -753 -553 -759 -4 -5 -8 282 -8 638 l0 647 178 0
c97 0 193 5 212 10 29 8 49 30 121 133 47 67 89 128 93 135 6 9 -86 12 -443
12 l-451 0 0 -1235z"/>
<path d="M5640 1314 c-201 -471 -367 -861 -368 -866 -2 -5 85 -7 198 -6 l201
3 71 167 71 168 321 0 321 0 34 -88 c19 -48 50 -124 69 -169 l34 -83 200 0
c185 0 199 1 194 18 -4 9 -163 397 -355 862 l-348 845 -139 3 -139 3 -365
-857z m596 24 l91 -233 -185 -3 c-102 -1 -187 0 -190 2 -6 7 178 466 187 466
4 0 47 -105 97 -232z"/>
<path d="M10455 2159 c-308 -44 -596 -270 -705 -551 -83 -215 -76 -483 18
-690 93 -206 282 -382 491 -458 240 -88 517 -76 740 31 229 109 391 294 466
529 22 67 28 111 33 213 8 209 -28 360 -125 516 -62 100 -197 233 -299 293
-176 105 -405 148 -619 117z m270 -354 c170 -45 321 -190 371 -357 27 -92 25
-252 -5 -337 -76 -218 -273 -361 -496 -361 -224 0 -416 142 -490 363 -29 89
-34 227 -10 316 47 178 205 335 378 377 72 17 182 17 252 -1z"/>
<path d="M12100 2144 c-88 -19 -179 -65 -244 -125 -108 -99 -156 -209 -156
-359 0 -158 52 -267 167 -347 77 -53 129 -79 307 -148 169 -65 219 -101 237
-168 24 -90 -20 -186 -105 -225 -56 -27 -157 -29 -234 -7 -62 19 -148 94 -190
166 l-28 50 -124 -119 -124 -119 18 -29 c87 -133 233 -243 386 -289 30 -9 102
-19 160 -22 174 -9 310 29 429 121 135 104 201 249 201 437 0 151 -38 255
-124 344 -64 65 -140 107 -340 189 -195 80 -231 103 -247 155 -24 81 35 157
142 180 95 21 185 -9 273 -90 l52 -47 93 120 c51 67 95 127 98 134 2 7 -21 32
-53 58 -165 129 -394 184 -594 140z"/>
<path d="M3810 1285 l0 -845 185 0 185 0 0 354 c0 195 3 357 8 360 4 2 135
-157 292 -355 l284 -359 243 0 c134 0 243 2 243 5 0 2 -167 205 -371 450 -203
246 -369 450 -367 455 2 4 147 165 324 356 176 192 335 366 353 387 l33 37
-238 0 -239 0 -280 -322 -280 -322 -3 322 -2 322 -185 0 -185 0 0 -845z"/>
<path d="M6746 2118 c4 -7 134 -211 288 -453 l281 -440 5 -390 5 -390 188 -3
187 -2 0 384 0 385 291 448 c160 246 294 454 296 461 4 9 -43 12 -215 12
l-221 0 -128 -210 c-70 -116 -145 -238 -166 -271 l-39 -61 -167 269 -167 268
-223 3 c-177 2 -221 0 -215 -10z"/>
<path d="M8400 1286 l0 -846 185 0 185 0 2 327 3 327 220 -327 219 -327 228 0
c125 0 228 3 228 7 0 4 -115 159 -255 345 -140 186 -255 340 -255 342 0 2 21
11 46 20 224 76 345 324 290 588 -39 180 -154 302 -344 360 -61 20 -97 22
-409 25 l-343 5 0 -846z m617 498 c77 -39 103 -82 103 -177 0 -82 -15 -122
-63 -164 -47 -41 -121 -63 -214 -63 l-73 0 0 221 0 222 95 -5 c78 -4 104 -10
152 -34z"/>
</g>
</svg>
