<?xml version="1.0" standalone="no"?>
<!DOCTYPE svg PUBLIC "-//W3C//DTD SVG 20010904//EN"
 "http://www.w3.org/TR/2001/REC-SVG-20010904/DTD/svg10.dtd">
<svg version="1.0" xmlns="http://www.w3.org/2000/svg"
 width="629.000000pt" height="254.000000pt" viewBox="0 0 629.000000 254.000000"
 preserveAspectRatio="xMidYMid meet">

<g transform="translate(0.000000,254.000000) scale(0.100000,-0.100000)"
fill="#000000" stroke="none">
<path d="M700 2531 c-31 -4 -80 -16 -110 -26 -260 -86 -455 -281 -546 -548
-50 -145 -51 -369 -4 -517 l20 -64 -30 -31 -30 -31 0 -657 0 -657 830 0 830 0
0 657 0 657 -30 31 c-30 31 -30 32 -15 74 20 59 45 205 45 271 0 80 -26 228
-52 296 -95 249 -294 442 -536 518 -92 29 -268 42 -372 27z m240 -102 c128
-20 248 -77 359 -169 32 -27 69 -63 81 -80 25 -35 22 -53 -30 -225 -87 -282
-181 -489 -286 -628 -111 -148 -218 -216 -350 -225 -135 -9 -266 50 -446 198
-102 85 -103 87 -127 160 -33 102 -41 298 -17 403 49 206 198 402 373 491 153
77 289 100 443 75z m525 -463 c-36 -62 -42 -58 -9 5 14 28 28 49 31 46 2 -3
-7 -26 -22 -51z m58 -48 c5 -16 -10 -41 -61 -104 -37 -46 -68 -79 -70 -74 -4
10 110 200 119 200 4 0 9 -10 12 -22z m27 -149 c0 -34 -8 -43 -92 -118 -77
-68 -94 -78 -96 -62 -4 26 169 245 180 228 4 -7 8 -28 8 -48z m-2 -166 c-4
-37 -11 -70 -15 -74 -5 -4 -51 -32 -103 -62 -78 -45 -96 -52 -98 -38 -6 33 14
58 116 149 56 51 104 92 105 92 2 0 0 -30 -5 -67z m-48 -195 c-15 -39 -17 -55
-8 -65 7 -8 7 -17 2 -23 -11 -10 -187 -61 -192 -55 -3 2 0 21 5 41 7 34 18 42
108 95 55 32 101 58 102 59 2 0 -6 -23 -17 -52z m-1335 -116 c-3 -3 -11 0 -18
7 -9 10 -8 11 6 5 10 -3 15 -9 12 -12z m1395 -96 l0 -74 -142 -4 c-79 -3 -144
-4 -145 -3 -2 1 1 21 5 45 l7 44 130 37 c72 20 133 35 138 32 4 -2 7 -37 7
-77z m-1342 20 c50 -22 90 -41 89 -42 -1 -1 -46 8 -99 20 -90 19 -98 23 -98
44 0 13 4 22 8 20 4 -1 49 -21 100 -42z m-43 -66 c22 -5 55 -12 73 -15 59 -10
154 -34 160 -39 3 -3 -46 -6 -109 -6 -63 0 -131 -3 -151 -6 l-38 -7 0 42 c0
45 2 46 65 31z m1385 -160 c0 -44 -3 -80 -7 -80 -5 0 -77 14 -161 32 -109 22
-151 35 -148 44 3 7 8 29 12 48 l6 36 149 0 149 0 0 -80z m-353 38 c-3 -8 -6
-5 -6 6 -1 11 2 17 5 13 3 -3 4 -12 1 -19z m-708 2 c-8 -5 -27 -11 -42 -14
-14 -2 -56 -14 -94 -25 -183 -56 -235 -71 -244 -71 -5 0 -9 27 -9 60 l0 60
203 0 c127 0 196 -4 186 -10z m74 -47 c4 -3 -3 -11 -16 -18 -12 -7 -110 -63
-217 -125 -107 -61 -203 -116 -212 -121 -16 -9 -18 -3 -18 68 l0 78 37 11 c21
6 81 24 133 39 52 15 129 38 170 51 77 24 112 29 123 17z m65 -53 c-1 -5 -120
-114 -263 -241 l-260 -231 -3 99 c-1 54 1 99 5 101 4 1 116 65 248 142 220
127 282 157 273 130z m97 0 c3 -5 1 -10 -4 -10 -6 0 -11 5 -11 10 0 6 2 10 4
10 3 0 8 -4 11 -10z m151 -27 c-10 -10 -19 5 -10 18 6 11 8 11 12 0 2 -7 1
-15 -2 -18z m522 -14 l152 -32 0 -83 c0 -46 -3 -84 -6 -84 -3 0 -80 32 -171
72 l-165 72 6 29 c3 16 6 36 6 43 0 19 4 19 178 -17z m-716 -24 c-3 -5 -51
-66 -106 -134 -108 -132 -134 -164 -325 -402 -68 -85 -130 -161 -137 -169 -12
-12 -14 4 -14 107 l0 122 287 255 c188 167 290 252 294 244 4 -7 5 -17 1 -23z
m102 14 c-3 -5 -10 -7 -15 -3 -5 3 -7 10 -3 15 3 5 10 7 15 3 5 -3 7 -10 3
-15z m150 6 c-4 -8 -10 -15 -15 -15 -4 0 -6 7 -3 15 4 8 10 15 15 15 4 0 6 -7
3 -15z m233 -7 c-3 -8 -6 -5 -6 6 -1 11 2 17 5 13 3 -3 4 -12 1 -19z m-186
-29 c-5 -13 -10 -19 -10 -12 -1 15 10 45 15 40 3 -2 0 -15 -5 -28z m-141 -11
c0 -16 -3 -19 -11 -11 -6 6 -8 16 -5 22 11 17 16 13 16 -11z m189 -32 c-9 -8
-10 -7 -5 7 3 10 7 26 7 35 1 9 4 6 6 -7 3 -13 -1 -28 -8 -35z m-284 24 c3 -5
-14 -40 -38 -77 -44 -69 -58 -92 -122 -198 -20 -33 -55 -90 -78 -127 -23 -37
-78 -126 -122 -198 l-80 -130 -89 0 c-83 0 -88 1 -75 18 7 9 39 49 71 87 110
134 254 312 383 473 72 89 133 162 137 162 4 0 10 -4 13 -10z m151 -26 c-3 -9
-6 -18 -6 -20 0 -3 -4 -3 -10 1 -11 7 -2 35 12 35 6 0 7 -7 4 -16z m183 -38
c-9 -8 -10 -7 -5 7 3 10 7 24 7 30 1 7 3 4 6 -7 3 -10 -1 -23 -8 -30z m68 12
c-3 -7 -5 -2 -5 12 0 14 2 19 5 13 2 -7 2 -19 0 -25z m-343 4 c5 -9 -11 -43
-197 -424 l-126 -258 -56 0 c-30 0 -55 4 -55 8 0 4 15 32 34 62 42 67 81 130
172 277 38 62 88 143 111 180 23 38 55 89 70 115 28 48 37 56 47 40z m149 -33
c-3 -12 -9 -17 -15 -11 -10 10 0 44 12 37 5 -3 6 -14 3 -26z m332 -2 c39 -15
113 -47 165 -70 l95 -43 3 -86 3 -87 -158 101 c-87 55 -170 108 -185 117 -20
11 -26 22 -22 37 3 11 7 29 9 40 2 10 4 21 4 22 1 2 4 2 9 0 4 -1 39 -16 77
-31z m-148 -9 c-3 -8 -6 -5 -6 6 -1 11 2 17 5 13 3 -3 4 -12 1 -19z m-136 -35
c-9 -16 -10 -15 -11 8 0 14 3 29 8 33 12 12 14 -22 3 -41z m-131 33 c0 -4
-108 -280 -199 -511 l-48 -120 -41 -3 c-23 -2 -42 -1 -42 3 0 3 55 119 123
258 67 138 136 280 152 314 17 35 36 63 43 63 6 0 12 -2 12 -4z m194 -64 c-4
-18 -10 -29 -15 -27 -4 3 -6 12 -4 20 3 8 7 22 10 31 9 28 16 9 9 -24z m-220
-252 c-111 -344 -101 -320 -135 -320 -16 0 -29 4 -29 9 0 5 24 69 53 142 48
120 145 365 169 428 5 15 12 21 18 15 6 -6 -23 -110 -76 -274z m278 216 c-2
-20 -9 -36 -14 -36 -6 0 -8 10 -4 23 3 12 6 30 6 40 0 10 4 16 8 13 4 -3 6
-21 4 -40z m-177 -152 c-20 -77 -45 -173 -57 -214 -11 -41 -25 -95 -32 -120
-10 -38 -16 -45 -40 -48 -20 -3 -27 0 -23 10 3 7 22 65 43 128 144 447 135
422 141 399 2 -9 -12 -79 -32 -155z m326 97 c52 -33 136 -86 186 -118 l93 -58
0 -83 c0 -68 -2 -82 -14 -75 -8 4 -95 76 -195 158 -152 126 -181 154 -181 177
0 25 9 58 15 58 2 0 45 -27 96 -59z m-236 -28 c-3 -26 -8 -50 -10 -53 -4 -7
-63 -264 -71 -310 -10 -60 -21 -85 -39 -89 -21 -4 -20 3 24 172 12 42 30 112
41 155 18 67 30 109 45 160 10 30 16 8 10 -35z m60 -45 c-4 -24 -18 -97 -30
-163 -13 -66 -27 -136 -30 -155 -12 -76 -17 -90 -32 -90 -19 0 -18 10 38 258
24 105 47 192 52 192 5 0 6 -19 2 -42z m259 -176 c186 -154 196 -164 196 -197
l0 -35 -240 0 c-271 0 -250 -8 -226 89 8 31 24 113 37 184 12 70 26 126 30
125 4 -2 95 -76 203 -166z"/>
<path d="M532 2109 c-99 -50 -148 -161 -123 -274 11 -47 22 -67 60 -105 59
-59 113 -78 199 -69 220 22 287 305 103 434 -37 26 -53 30 -119 33 -63 2 -85
-1 -120 -19z"/>
<path d="M2010 1766 l0 -326 125 0 c68 0 148 5 177 11 153 32 242 151 241 320
-1 132 -65 233 -182 288 -51 23 -70 26 -208 29 l-153 4 0 -326z m306 185 c23
-10 54 -35 69 -56 24 -31 29 -48 33 -115 4 -66 1 -86 -17 -124 -33 -67 -75
-89 -183 -94 l-88 -4 0 199 c0 110 3 203 7 206 14 15 139 6 179 -12z"/>
<path d="M2742 1886 c-63 -20 -122 -86 -122 -136 0 -17 6 -20 48 -20 42 0 49
3 64 29 29 52 129 53 155 1 6 -13 10 -27 8 -31 -3 -3 -41 -10 -85 -13 -93 -9
-135 -23 -170 -61 -21 -22 -25 -36 -25 -85 0 -48 4 -63 25 -85 56 -60 133 -72
213 -32 43 22 46 23 50 5 4 -14 15 -18 56 -18 l51 0 0 153 c0 83 -4 167 -10
186 -11 39 -43 77 -83 97 -32 17 -135 23 -175 10z m153 -283 c-10 -45 -47 -75
-93 -77 -48 -1 -74 18 -70 53 4 34 40 51 112 51 l58 0 -7 -27z"/>
<path d="M3280 1883 c-8 -3 -25 -14 -36 -25 -21 -19 -21 -19 -27 1 -4 18 -13
21 -61 21 l-56 0 0 -220 0 -220 60 0 60 0 0 119 c0 65 5 132 11 150 14 38 54
61 109 61 l41 0 -3 58 -3 57 -40 2 c-22 1 -47 -1 -55 -4z"/>
<path d="M2550 785 l0 -325 60 0 60 0 0 325 0 325 -60 0 -60 0 0 -325z"/>
<path d="M3760 785 l0 -325 60 0 60 0 0 58 c0 50 4 62 25 82 l25 24 18 -24
c26 -37 60 -93 71 -117 9 -21 18 -23 81 -23 83 0 84 -16 -17 147 -34 57 -63
106 -63 111 0 4 34 41 75 82 41 41 75 78 75 82 0 5 -31 8 -70 8 l-69 0 -48
-51 c-26 -28 -60 -65 -75 -82 l-28 -31 0 192 0 192 -60 0 -60 0 0 -325z"/>
<path d="M4680 785 l0 -325 60 0 60 0 0 140 c0 136 1 142 25 165 32 33 103 35
131 4 16 -18 19 -40 22 -165 l3 -144 60 0 59 0 0 123 c0 226 -22 286 -117 313
-56 16 -113 8 -160 -22 l-23 -14 0 125 0 125 -60 0 -60 0 0 -325z"/>
<path d="M5700 1103 c-50 -18 -68 -84 -32 -116 55 -50 142 9 116 78 -5 13 -56
47 -66 44 -2 0 -10 -3 -18 -6z"/>
<path d="M2010 781 l0 -321 171 0 c193 0 220 7 267 68 23 30 27 45 27 101 0
54 -4 72 -24 98 -14 18 -33 35 -43 38 -15 5 -13 11 17 40 80 81 51 222 -57
272 -36 17 -65 21 -200 22 l-158 2 0 -320z m310 184 c27 -25 27 -88 0 -115
-17 -17 -33 -20 -105 -20 l-85 0 0 81 0 82 85 -5 c63 -3 89 -9 105 -23z m-7
-256 c29 -16 37 -28 37 -64 0 -61 -19 -73 -125 -77 l-95 -3 0 78 0 77 81 0
c44 0 90 -5 102 -11z"/>
<path d="M3425 899 c-101 -24 -165 -111 -165 -223 0 -114 50 -191 143 -222
120 -40 262 27 283 134 l7 32 -59 0 c-55 0 -60 -2 -75 -29 -19 -32 -61 -46
-109 -36 -57 13 -86 90 -63 169 12 40 20 50 51 63 49 21 106 4 127 -37 14 -27
20 -30 66 -30 58 0 67 12 49 64 -17 53 -79 101 -147 115 -31 6 -59 11 -62 10
-3 -1 -24 -5 -46 -10z"/>
<path d="M4345 899 c-100 -24 -165 -112 -165 -226 0 -74 15 -115 59 -165 94
-108 302 -79 357 49 25 57 21 63 -46 63 -44 0 -60 -4 -60 -13 0 -39 -80 -68
-130 -47 -84 35 -79 202 6 230 47 16 99 -2 119 -41 14 -27 20 -29 70 -29 49 0
55 2 55 20 0 70 -70 141 -157 159 -31 6 -59 11 -62 10 -3 -1 -24 -5 -46 -10z"/>
<path d="M5306 896 c-61 -17 -114 -68 -123 -119 l-6 -37 52 0 c37 0 51 4 51
14 0 25 50 56 90 56 41 0 75 -22 84 -56 6 -20 2 -21 -80 -27 -141 -10 -204
-54 -204 -142 0 -61 24 -103 72 -125 71 -32 142 -24 196 24 l22 19 0 -21 c0
-20 5 -22 55 -22 l55 0 0 148 c0 81 -5 164 -10 184 -14 50 -67 94 -130 107
-61 13 -62 13 -124 -3z m150 -278 c-8 -41 -30 -64 -72 -78 -45 -15 -88 4 -92
41 -5 42 25 55 157 68 10 1 12 -7 7 -31z"/>
<path d="M6058 893 c-18 -8 -40 -21 -50 -30 -17 -15 -18 -15 -18 5 0 20 -5 22
-60 22 l-60 0 0 -215 0 -215 65 0 65 0 0 143 c0 137 1 144 23 165 31 29 99 30
127 2 18 -18 20 -33 20 -165 l0 -145 60 0 60 0 0 160 c0 172 -7 206 -51 247
-22 20 -91 42 -131 40 -9 0 -32 -7 -50 -14z"/>
<path d="M2889 890 c-43 -13 -89 -52 -117 -100 -22 -37 -27 -57 -27 -115 1
-109 47 -179 142 -215 63 -24 101 -25 165 -5 102 30 158 109 158 219 -1 100
-48 175 -132 210 -39 17 -144 20 -189 6z m128 -100 c8 0 28 -14 44 -31 24 -26
29 -39 29 -84 0 -43 -5 -60 -26 -84 -45 -54 -143 -50 -180 7 -25 39 -24 113 2
149 21 29 79 55 102 47 8 -2 20 -4 29 -4z"/>
<path d="M5660 675 l0 -215 60 0 60 0 0 215 0 215 -60 0 -60 0 0 -215z"/>
<path d="M2010 55 l0 -55 2140 0 2140 0 0 55 0 55 -2140 0 -2140 0 0 -55z"/>
</g>
</svg>
