<?xml version="1.0" standalone="no"?>
<!DOCTYPE svg PUBLIC "-//W3C//DTD SVG 20010904//EN"
 "http://www.w3.org/TR/2001/REC-SVG-20010904/DTD/svg10.dtd">
<svg version="1.0" xmlns="http://www.w3.org/2000/svg"
 width="1280.000000pt" height="256.000000pt" viewBox="0 0 1280.000000 256.000000"
 preserveAspectRatio="xMidYMid meet">

<g transform="translate(0.000000,256.000000) scale(0.100000,-0.100000)"
fill="#000000" stroke="none">
<path d="M1460 2547 c-28 -14 -102 -113 -710 -949 -250 -345 -456 -626 -456
-625 -1 1 -3 295 -5 652 l-4 650 207 5 206 5 24 30 c12 16 55 74 94 130 l71
100 -440 3 c-242 1 -442 1 -444 -1 -2 -2 -2 -555 -1 -1228 l3 -1224 244 335
c135 184 481 659 769 1055 289 396 540 736 558 755 l34 35 282 3 c234 3 280 1
271 -10 -5 -7 -117 -161 -248 -343 -132 -181 -285 -394 -342 -472 l-102 -142
62 -85 c34 -47 64 -84 67 -83 3 1 80 80 172 174 103 107 207 226 269 310 108
145 619 845 658 901 l22 32 -618 -1 c-451 0 -625 -4 -643 -12z"/>
<path d="M1109 812 c-89 -119 -93 -127 -79 -162 7 -16 19 -35 28 -42 15 -13
27 -3 111 84 l94 98 -37 55 c-20 30 -40 55 -44 55 -4 0 -37 -40 -73 -88z"/>
</g>
</svg>
