<svg version="1.0" xmlns="http://www.w3.org/2000/svg"
 width="493.000000pt" height="64.000000pt" viewBox="0 0 493.000000 64.000000"
 preserveAspectRatio="xMidYMid meet">

<g transform="translate(0.000000,64.000000) scale(0.100000,-0.100000)"
fill="#FFFFFF" stroke="none">
<path d="M17 622 c-15 -16 -17 -54 -17 -320 l0 -302 183 0 c206 0 235 8 272
70 17 30 20 52 20 165 0 208 -27 235 -232 235 l-123 0 0 63 c0 75 -18 107 -59
107 -15 0 -35 -8 -44 -18z m324 -292 c16 -9 19 -22 19 -95 0 -104 -1 -105
-139 -105 l-101 0 0 105 0 105 101 0 c55 0 109 -5 120 -10z"/>
<path d="M1597 622 c-15 -16 -17 -52 -17 -304 0 -263 1 -286 18 -301 10 -10
30 -17 44 -17 48 0 53 18 58 222 l5 188 109 -150 c60 -82 113 -150 116 -150 3
0 56 68 116 150 l109 150 5 -188 c5 -205 10 -222 60 -222 58 0 60 9 60 322 0
322 1 319 -76 317 -39 0 -40 -1 -154 -160 -63 -87 -117 -159 -120 -159 -3 0
-57 72 -120 159 l-115 160 -41 0 c-27 1 -46 -5 -57 -17z"/>
<path d="M592 460 c-41 -17 -52 -66 -52 -225 0 -163 11 -208 55 -225 15 -6 97
-10 184 -10 140 0 160 2 174 18 19 21 22 64 7 93 -10 17 -22 19 -136 19 -119
0 -164 8 -164 30 0 6 48 10 114 10 63 0 126 4 141 10 35 13 55 65 55 140 0 75
-20 127 -55 140 -33 12 -292 12 -323 0z m253 -140 c0 -12 -18 -16 -92 -18 -76
-2 -93 0 -93 12 0 20 22 24 110 23 59 -2 75 -5 75 -17z"/>
<path d="M1020 252 c0 -199 2 -220 18 -235 26 -24 68 -21 86 5 13 18 16 53 16
170 l0 148 101 0 c145 0 139 7 139 -164 0 -126 2 -145 18 -159 28 -25 69 -21
88 8 13 20 15 50 12 182 -3 137 -6 163 -23 193 -37 62 -66 70 -272 70 l-183 0
0 -218z"/>
<path d="M2379 455 c-40 -22 -49 -63 -49 -220 0 -232 3 -235 239 -235 96 0
170 4 184 11 45 21 52 49 52 224 0 175 -7 203 -52 224 -37 17 -341 14 -374 -4z
m292 -125 c16 -9 19 -22 19 -95 0 -102 -3 -105 -120 -105 -117 0 -120 3 -120
105 0 69 3 86 18 94 22 14 178 14 203 1z"/>
<path d="M2876 451 c-16 -17 -17 -39 -14 -188 3 -187 9 -206 71 -243 29 -18
51 -20 220 -20 l187 0 0 213 c0 236 -5 257 -59 257 -54 0 -61 -21 -61 -188 l0
-152 -101 0 c-145 0 -139 -7 -139 158 0 108 -3 142 -16 160 -19 28 -64 29 -88
3z"/>
<path d="M3464 456 c-58 -25 -81 -133 -47 -217 24 -61 52 -69 233 -69 139 0
151 -1 148 -17 -3 -16 -21 -18 -188 -21 -204 -3 -210 -4 -210 -67 0 -61 14
-65 229 -65 225 0 249 6 275 71 28 69 16 168 -25 205 -18 17 -42 20 -188 24
-139 4 -166 7 -166 20 0 13 28 15 185 18 204 3 210 4 210 67 0 61 -14 65 -231
65 -140 -1 -203 -5 -225 -14z"/>
<path d="M4014 456 c-58 -25 -81 -133 -47 -217 24 -61 52 -69 233 -69 139 0
151 -1 148 -17 -3 -16 -21 -18 -188 -21 -204 -3 -210 -4 -210 -67 0 -61 14
-65 229 -65 225 0 249 6 275 71 28 69 16 168 -25 205 -18 17 -42 20 -188 24
-139 4 -166 7 -166 20 0 13 28 15 185 18 204 3 210 4 210 67 0 61 -14 65 -231
65 -140 -1 -203 -5 -225 -14z"/>
<path d="M4517 452 c-19 -21 -22 -64 -7 -93 10 -17 22 -19 133 -19 134 0 167
-5 167 -26 0 -11 -26 -14 -128 -14 -125 0 -129 -1 -153 -26 -20 -21 -24 -38
-27 -103 -5 -92 13 -146 53 -161 15 -6 105 -10 201 -10 l174 0 0 190 c0 211
-8 252 -55 270 -15 6 -97 10 -184 10 -140 0 -160 -2 -174 -18z m293 -302 c0
-20 -5 -21 -92 -18 -79 3 -93 6 -96 21 -3 15 6 17 92 17 90 0 96 -1 96 -20z"/>
</g>
</svg>
